# Created by Kenney (www.kenney.nl)

mtllib wall-corner.mtl

g wall-corner

v -0.5 0.15 -0.25 1 1 1
v -0.4 0.15 -0.25 1 1 1
v -0.5 0.75 -0.25 1 1 1
v -0.4 0.425 -0.25 1 1 1
v -0.3752609 0.5493721 -0.25 1 1 1
v -0.3048097 0.6548097 -0.25 1 1 1
v -0.25 0.6914324 -0.25 1 1 1
v -0.25 0.75 -0.25 1 1 1
v -0.5 0.75 0.25 1 1 1
v -0.5 0.15 0.25 1 1 1
v -0.4 0.425 0.25 1 1 1
v -0.4 0.15 0.25 1 1 1
v -0.3752609 0.5493721 0.25 1 1 1
v -0.3048097 0.6548097 0.25 1 1 1
v -0.1993721 0.7252609 0.25 1 1 1
v -0.075 0.75 0.25 1 1 1
v -0.25 0.15 -0.5 1 1 1
v 0.25 0.15 -0.5 1 1 1
v -0.25 0.75 -0.5 1 1 1
v 0.25 0.75 -0.5 1 1 1
v 0.25 0.75 -0.07499998 1 1 1
v 0.25 0.7252609 -0.1993721 1 1 1
v 0.25 0.6548097 -0.3048097 1 1 1
v 0.25 0.5493721 -0.3752608 1 1 1
v 0.25 0.425 -0.4 1 1 1
v 0.25 0.15 -0.4 1 1 1
v -0.25 0.15 -0.4 1 1 1
v -0.25 0.425 -0.4 1 1 1
v -0.25 0.5493721 -0.3752608 1 1 1
v -0.25 0.6548097 -0.3048097 1 1 1
v -0.075 0.75 -0.07499998 1 1 1
v -0.1993721 0.7252609 -0.1993721 1 1 1
v -0.25 0.1146447 -0.3853554 1 1 1
v -0.2646447 0.1146447 -0.4 1 1 1
v -0.25 0.15 -0.4 1 1 1
v 0.2646447 0.1146447 -0.3999999 1 1 1
v 0.25 0.1146447 -0.3853553 1 1 1
v 0.25 0.15 -0.3999999 1 1 1
v 0.3 -8.066646E-16 -0.4999999 1 1 1
v 0.3 0.08086583 -0.4999999 1 1 1
v -0.3 -5.341336E-15 -0.5 1 1 1
v 0.2823223 0.1073223 -0.4999999 1 1 1
v 0.2646447 0.1146447 -0.4999999 1 1 1
v 0.25 0.15 -0.4999999 1 1 1
v -0.25 0.15 -0.5 1 1 1
v -0.2646447 0.1146447 -0.5 1 1 1
v -0.2823223 0.1073223 -0.5 1 1 1
v -0.3 0.08086583 -0.5 1 1 1
v 0.25 5.075972E-17 -0.3499999 1 1 1
v 0.3 5.075972E-17 -0.3999999 1 1 1
v -0.25 -4.483912E-15 -0.35 1 1 1
v -0.3 -4.483912E-15 -0.4 1 1 1
v -0.3 0.08086583 -0.4 1 1 1
v -0.2823223 0.1073223 -0.4 1 1 1
v -0.25 0.08086583 -0.35 1 1 1
v -0.25 0.1073223 -0.3676777 1 1 1
v 0.25 0.1073223 -0.3676776 1 1 1
v 0.25 0.08086583 -0.3499999 1 1 1
v 0.2823223 0.1073223 -0.3999999 1 1 1
v 0.3 0.08086583 -0.3999999 1 1 1
v -0.3853553 0.1146447 0.25 1 1 1
v -0.4 0.1146447 0.2646447 1 1 1
v -0.4 0.1146447 -0.2646447 1 1 1
v -0.3853553 0.1146447 -0.25 1 1 1
v -0.4 0.15 -0.25 1 1 1
v -0.5 5.786737E-15 -0.3 1 1 1
v -0.5 0.08086583 -0.3 1 1 1
v -0.5 1.252065E-15 0.3 1 1 1
v -0.5 0.1073223 -0.2823223 1 1 1
v -0.5 0.1146447 -0.2646447 1 1 1
v -0.5 0.15 -0.25 1 1 1
v -0.5 0.15 0.25 1 1 1
v -0.5 0.1146447 0.2646447 1 1 1
v -0.5 0.1073223 0.2823223 1 1 1
v -0.5 0.08086583 0.3 1 1 1
v -0.35 6.644161E-15 -0.25 1 1 1
v -0.4 6.644161E-15 -0.3 1 1 1
v -0.35 2.109489E-15 0.25 1 1 1
v -0.4 2.109489E-15 0.3 1 1 1
v -0.4 0.08086583 0.3 1 1 1
v -0.4 0.1073223 0.2823223 1 1 1
v -0.35 0.08086583 0.25 1 1 1
v -0.3676777 0.1073223 0.25 1 1 1
v -0.3676777 0.1073223 -0.25 1 1 1
v -0.35 0.08086583 -0.25 1 1 1
v -0.4 0.1073223 -0.2823223 1 1 1
v -0.4 0.08086583 -0.3 1 1 1
v 0.2736116 1 0.08599693 1 1 1
v 0.2736116 0.8 0.08599693 1 1 1
v 0.1984637 1 0.1984637 1 1 1
v 0.1984637 0.8 0.1984637 1 1 1
v -0.04666667 0.8 0.3 1 1 1
v -0.5 0.8 0.3 1 1 1
v -0.04666667 1 0.3 1 1 1
v -0.5 1 0.3 1 1 1
v 0.3 1 -0.5 1 1 1
v 0.3 1 -0.04666665 1 1 1
v -0.3 1 -0.5 1 1 1
v 0.08599692 1 0.2736116 1 1 1
v -0.3 1 -0.3 1 1 1
v -0.5 1 -0.3 1 1 1
v 0.08599692 0.8 0.2736116 1 1 1
v -0.3 0.8 -0.5 1 1 1
v -0.3 0.8 -0.3 1 1 1
v -0.5 0.8 -0.3 1 1 1
v 0.3 0.8 -0.04666665 1 1 1
v 0.2394224 0.7853553 0.06009928 1 1 1
v 0.1675957 0.7853553 0.1675957 1 1 1
v 0.3 0.8 -0.5 1 1 1
v -0.06670137 0.7853553 0.2646447 1 1 1
v 0.06009927 0.7853553 0.2394224 1 1 1
v 0.2646447 0.7853553 -0.06670135 1 1 1
v 0.25 0.75 -0.07499999 1 1 1
v 0.2252609 0.75 0.04937213 1 1 1
v 0.04937211 0.75 0.2252609 1 1 1
v 0.1548097 0.75 0.1548097 1 1 1
v -0.5 0.7853553 -0.2646447 1 1 1
v -0.5 0.75 -0.25 1 1 1
v -0.5 0.7853553 0.2646447 1 1 1
v -0.2646447 0.7853553 -0.2646447 1 1 1
v -0.2646447 0.7853553 -0.5 1 1 1
v 0.2646447 0.7853553 -0.5 1 1 1
v -0.25 0.75 -0.25 1 1 1

vn 0 0 -1
vn -1 0 0
vn 0.9951847 -0.09801711 0
vn 1 0 0
vn 0 0 1
vn 0 -0.09801715 0.9951847
vn 0.1950903 -0.9807853 0
vn 0.3826834 -0.9238795 0
vn 0.468805 -0.8833017 0
vn 0 -0.3826834 0.9238795
vn 0.7071068 -0.7071068 0
vn 0.5555702 -0.8314696 0
vn 0 -0.9807853 0.1950903
vn 0 -0.9238795 0.3826834
vn 0 -0.8833017 0.468805
vn 0.9238795 -0.3826834 0
vn 0 -0.7071068 0.7071068
vn 0 -0.8314696 0.5555702
vn -0.2819914 0.729401 0.6232617
vn -0.6232618 0.729401 0.2819912
vn -0.6258028 0.4655554 0.6258027
vn 0.6232617 0.729401 0.2819913
vn 0.2819912 0.729401 0.6232618
vn 0.6258027 0.4655554 0.6258028
vn 1.192093E-07 0 -1
vn -0.7071068 0.7071068 -8.42937E-08
vn -0.9238796 0.3826834 -1.10135E-07
vn 0 -1 0
vn -1 0 -1.192093E-07
vn -0.9569405 0.2902847 -1.140762E-07
vn -0.9238797 0 0.3826833
vn -0.8988306 0.2603697 0.3525783
vn -0.6343933 0.7730104 -7.562557E-08
vn -0.6365796 0.7156749 0.2873604
vn -0.3826836 0 0.9238796
vn -0.3525786 0.2603697 0.8988305
vn -0.2873605 0.7156749 0.6365795
vn 0.2873604 0.7156749 0.6365796
vn 0.3525783 0.2603697 0.8988306
vn 0.3826833 0 0.9238797
vn 0.6365795 0.7156749 0.2873605
vn 0.6343933 0.7730104 7.562557E-08
vn 0.7071068 0.7071068 8.42937E-08
vn 0.9569405 0.2902847 1.140762E-07
vn 0.8988305 0.2603697 0.3525786
vn 0.9238796 0 0.3826836
vn 0.9238796 0.3826834 1.10135E-07
vn 1 0 1.192093E-07
vn 0.6232617 0.729401 0.2819913
vn 0.2819912 0.729401 0.6232617
vn 0.6258027 0.4655554 0.6258027
vn 0.2819912 0.729401 -0.6232617
vn 0.6232617 0.729401 -0.2819913
vn 0.6258027 0.4655554 -0.6258027
vn 0 0.7071068 0.7071068
vn 0 0.3826834 0.9238795
vn 0 0.2902847 0.9569404
vn 0.3826834 0 0.9238795
vn 0.3525784 0.2603697 0.8988304
vn 0 0.7730104 0.6343933
vn 0.2873604 0.7156749 0.6365795
vn 0.9238795 0 0.3826834
vn 0.8988304 0.2603697 0.3525784
vn 0.6365795 0.7156749 0.2873604
vn 0.6365795 0.7156749 -0.2873604
vn 0.8988304 0.2603697 -0.3525784
vn 0.9238795 0 -0.3826834
vn 0.2873604 0.7156749 -0.6365795
vn 0 0.7730104 -0.6343933
vn 0 0.7071068 -0.7071068
vn 0 0.2902847 -0.9569404
vn 0.3525784 0.2603697 -0.8988304
vn 0.3826834 0 -0.9238795
vn 0 0.3826834 -0.9238795
vn 0.7071068 0 0.7071068
vn 0.09801714 0 0.9951847
vn 0 1 0
vn 0.3826834 0 0.9238795
vn 0.9951847 0 0.09801714
vn 0.3023782 -0.9436603 0.1344346
vn 0.5906252 -0.76944 0.2431541
vn 0.2248964 -0.9480734 0.2248964
vn 0.4410588 -0.7816227 0.4410588
vn 0.04379231 -0.9315237 0.3610342
vn 0.1344346 -0.9436603 0.3023782
vn 0.06636745 -0.7305794 0.6795948
vn 0.2431541 -0.76944 0.5906252
vn 0.6795948 -0.7305794 0.06636745
vn 0.3610342 -0.9315237 0.04379231
vn 0.9142068 -0.3973568 0.07958374
vn 0.8367326 -0.4357741 0.3316319
vn 0.3316319 -0.4357741 0.8367326
vn 0.07958373 -0.3973568 0.9142067
vn 0.6295489 -0.4553419 0.6295489
vn -0.4974923 -0.7106355 -0.4974923
vn -0.1987568 -0.9596829 -0.1987568
vn 0 -0.7071068 -0.7071068
vn 0 -0.9238795 -0.3826834
vn -0.7071068 -0.7071068 0
vn -0.3826834 -0.9238795 0
vn 0 -0.3826834 -0.9238795
vn -0.6101315 -0.5054495 -0.6101315
vn -0.9238795 -0.3826834 0

vt 0.34375 0.065
vt 0.34375 0.225
vt 0.34375 0.1383333
vt 0.34375 0.1714992
vt 0.34375 0.1996159
vt 0.34375 0.209382
vt 0.34375 0.2184029
vt 0.34375 0.2014298
vt 0.34375 0.125
vt 0.34375 0.1789106
vt 0.34375 0.1965482
vt 0.46875 0.175
vt 0.46875 0.095
vt 0.46875 0.08914214
vt 0.46875 0.075

usemtl colormap

f 3/2/1 2/1/1 1/1/1
f 2/1/1 3/2/1 4/3/1
f 4/3/1 3/2/1 5/4/1
f 5/4/1 3/2/1 6/5/1
f 6/5/1 3/2/1 7/6/1
f 7/6/1 3/2/1 8/2/1
f 1/1/2 9/2/2 3/2/2
f 9/2/2 1/1/2 10/1/2
f 11/3/3 2/1/4 4/3/3
f 2/1/4 11/3/3 12/1/4
f 12/1/5 9/2/5 10/1/5
f 9/2/5 12/1/5 11/3/5
f 9/2/5 11/3/5 13/4/5
f 9/2/5 13/4/5 14/5/5
f 9/2/5 14/5/5 15/7/5
f 9/2/5 15/7/5 16/2/5
f 19/2/1 18/1/1 17/1/1
f 18/1/1 19/2/1 20/2/1
f 22/7/4 20/2/4 21/2/4
f 23/5/4 20/2/4 22/7/4
f 24/4/4 20/2/4 23/5/4
f 20/2/4 24/4/4 18/1/4
f 18/1/4 24/4/4 25/3/4
f 26/1/4 18/1/4 25/3/4
f 25/3/6 27/1/5 26/1/5
f 27/1/5 25/3/6 28/3/6
f 27/1/2 19/2/2 17/1/2
f 19/2/2 27/1/2 28/3/2
f 19/2/2 28/3/2 29/4/2
f 19/2/2 29/4/2 8/2/2
f 8/2/2 29/4/2 30/5/2
f 8/2/2 30/5/2 7/6/2
f 15/7/8 31/2/7 16/2/7
f 31/2/7 15/7/8 32/7/9
f 24/4/10 28/3/6 25/3/6
f 28/3/6 24/4/10 29/4/10
f 14/5/11 32/7/9 15/7/8
f 32/7/9 14/5/11 7/6/12
f 7/6/12 14/5/11 6/5/11
f 31/2/13 22/7/14 21/2/13
f 22/7/14 31/2/13 32/7/15
f 14/5/11 5/4/16 6/5/11
f 5/4/16 14/5/11 13/4/16
f 23/5/17 29/4/10 24/4/10
f 29/4/10 23/5/17 30/5/17
f 13/4/16 4/3/3 5/4/16
f 4/3/3 13/4/16 11/3/3
f 32/7/15 23/5/17 22/7/14
f 23/5/17 32/7/15 30/5/17
f 30/5/17 32/7/15 7/6/18
f 35/2/21 34/8/20 33/8/19
f 38/2/24 37/8/23 36/8/22
f 41/9/25 40/10/25 39/9/25
f 40/10/25 41/9/25 42/11/25
f 42/11/25 41/9/25 43/8/25
f 43/8/25 41/9/25 44/2/25
f 44/2/25 41/9/25 45/2/25
f 45/2/25 41/9/25 46/8/25
f 46/8/25 41/9/25 47/11/25
f 47/11/25 41/9/25 48/10/25
f 34/8/20 45/2/27 46/8/26
f 45/2/27 34/8/20 35/2/21
f 51/9/28 50/9/28 49/9/28
f 50/9/28 51/9/28 52/9/28
f 50/9/28 52/9/28 39/9/28
f 39/9/28 52/9/28 41/9/28
f 52/9/31 48/10/30 41/9/29
f 48/10/30 52/9/31 53/10/32
f 53/10/32 47/11/33 48/10/30
f 47/11/33 53/10/32 54/11/34
f 46/8/26 54/11/34 34/8/20
f 54/11/34 46/8/26 47/11/33
f 55/10/36 52/9/31 51/9/35
f 52/9/31 55/10/36 53/10/32
f 56/11/37 53/10/32 55/10/36
f 53/10/32 56/11/37 54/11/34
f 33/8/19 54/11/34 56/11/37
f 54/11/34 33/8/19 34/8/20
f 35/2/21 37/8/23 38/2/24
f 37/8/23 35/2/21 33/8/19
f 37/8/23 56/11/37 57/11/38
f 56/11/37 37/8/23 33/8/19
f 56/11/37 58/10/39 57/11/38
f 58/10/39 56/11/37 55/10/36
f 55/10/36 49/9/40 58/10/39
f 49/9/40 55/10/36 51/9/35
f 42/11/42 36/8/22 59/11/41
f 36/8/22 42/11/42 43/8/43
f 42/11/42 60/10/45 40/10/44
f 60/10/45 42/11/42 59/11/41
f 60/10/45 49/9/40 50/9/46
f 49/9/40 60/10/45 58/10/39
f 60/10/45 57/11/38 58/10/39
f 57/11/38 60/10/45 59/11/41
f 59/11/41 37/8/23 57/11/38
f 37/8/23 59/11/41 36/8/22
f 44/2/47 36/8/22 43/8/43
f 36/8/22 44/2/47 38/2/24
f 40/10/44 50/9/46 39/9/48
f 50/9/46 40/10/44 60/10/45
f 12/2/51 62/8/50 61/8/49
f 65/2/54 64/8/53 63/8/52
f 68/9/2 67/10/2 66/9/2
f 67/10/2 68/9/2 69/11/2
f 69/11/2 68/9/2 70/8/2
f 70/8/2 68/9/2 71/2/2
f 71/2/2 68/9/2 72/2/2
f 72/2/2 68/9/2 73/8/2
f 73/8/2 68/9/2 74/11/2
f 74/11/2 68/9/2 75/10/2
f 62/8/50 72/2/56 73/8/55
f 72/2/56 62/8/50 12/2/51
f 78/9/28 77/9/28 76/9/28
f 77/9/28 78/9/28 79/9/28
f 77/9/28 79/9/28 66/9/28
f 66/9/28 79/9/28 68/9/28
f 79/9/58 75/10/57 68/9/5
f 75/10/57 79/9/58 80/10/59
f 80/10/59 74/11/60 75/10/57
f 74/11/60 80/10/59 81/11/61
f 73/8/55 81/11/61 62/8/50
f 81/11/61 73/8/55 74/11/60
f 82/10/63 79/9/58 78/9/62
f 79/9/58 82/10/63 80/10/59
f 83/11/64 80/10/59 82/10/63
f 80/10/59 83/11/64 81/11/61
f 61/8/49 81/11/61 83/11/64
f 81/11/61 61/8/49 62/8/50
f 12/2/51 64/8/53 65/2/54
f 64/8/53 12/2/51 61/8/49
f 64/8/53 83/11/64 84/11/65
f 83/11/64 64/8/53 61/8/49
f 83/11/64 85/10/66 84/11/65
f 85/10/66 83/11/64 82/10/63
f 82/10/63 76/9/67 85/10/66
f 76/9/67 82/10/63 78/9/62
f 69/11/69 63/8/52 86/11/68
f 63/8/52 69/11/69 70/8/70
f 69/11/69 87/10/72 67/10/71
f 87/10/72 69/11/69 86/11/68
f 87/10/72 76/9/67 77/9/73
f 76/9/67 87/10/72 85/10/66
f 87/10/72 84/11/65 85/10/66
f 84/11/65 87/10/72 86/11/68
f 86/11/68 64/8/53 84/11/65
f 64/8/53 86/11/68 63/8/52
f 71/2/74 63/8/52 70/8/70
f 63/8/52 71/2/74 65/2/54
f 67/10/71 77/9/73 66/9/1
f 77/9/73 67/10/71 87/10/72
f 90/12/75 89/13/62 88/12/62
f 89/13/62 90/12/75 91/13/75
f 94/12/76 93/13/5 92/13/76
f 93/13/5 94/12/76 95/12/5
f 98/12/77 97/12/77 96/12/77
f 97/12/77 98/12/77 88/12/77
f 88/12/77 98/12/77 90/12/77
f 90/12/77 98/12/77 99/12/77
f 99/12/77 98/12/77 94/12/77
f 94/12/77 98/12/77 100/12/77
f 94/12/77 100/12/77 95/12/77
f 95/12/77 100/12/77 101/12/77
f 90/12/75 102/13/78 91/13/75
f 102/13/78 90/12/75 99/12/78
f 104/13/2 98/12/2 103/13/2
f 98/12/2 104/13/2 100/12/2
f 99/12/78 92/13/76 102/13/78
f 92/13/76 99/12/78 94/12/76
f 105/13/1 100/12/1 104/13/1
f 100/12/1 105/13/1 101/12/1
f 88/12/62 106/13/79 97/12/79
f 106/13/79 88/12/62 89/13/62
f 91/13/82 107/14/81 89/13/80
f 108/14/83 107/14/81 91/13/82
f 97/12/79 109/13/4 96/12/4
f 109/13/4 97/12/79 106/13/79
f 110/14/86 102/13/85 92/13/84
f 110/14/86 111/14/87 102/13/85
f 111/14/87 91/13/82 102/13/85
f 111/14/87 108/14/83 91/13/82
f 107/14/81 112/14/88 89/13/80
f 112/14/88 106/13/89 89/13/80
f 107/14/81 114/15/91 113/15/90
f 107/14/81 113/15/90 112/14/88
f 111/14/87 16/15/93 115/15/92
f 110/14/86 16/15/93 111/14/87
f 108/14/83 114/15/91 107/14/81
f 108/14/83 116/15/94 114/15/91
f 108/14/83 115/15/92 116/15/94
f 111/14/87 115/15/92 108/14/83
f 117/14/2 101/12/2 105/13/2
f 101/12/2 117/14/2 95/12/2
f 95/12/2 117/14/2 118/15/2
f 95/12/2 118/15/2 9/15/2
f 95/12/2 9/15/2 119/14/2
f 95/12/2 119/14/2 93/13/2
f 117/14/97 104/13/96 120/14/95
f 104/13/96 117/14/97 105/13/98
f 93/13/14 110/14/86 92/13/84
f 110/14/86 93/13/14 119/14/17
f 120/14/95 103/13/100 121/14/99
f 103/13/100 120/14/95 104/13/96
f 19/15/1 122/14/1 20/15/1
f 122/14/1 19/15/1 121/14/1
f 122/14/1 121/14/1 103/13/1
f 122/14/1 103/13/1 109/13/1
f 109/13/1 103/13/1 98/12/1
f 109/13/1 98/12/1 96/12/1
f 106/13/89 122/14/11 109/13/8
f 122/14/11 106/13/89 112/14/88
f 110/14/86 9/15/10 16/15/93
f 9/15/10 110/14/86 119/14/17
f 117/14/97 123/15/102 118/15/101
f 123/15/102 117/14/97 120/14/95
f 123/15/102 121/14/99 19/15/103
f 121/14/99 123/15/102 120/14/95
f 122/14/11 113/15/90 20/15/16
f 113/15/90 122/14/11 112/14/88
f 123/15/28 9/15/28 118/15/28
f 9/15/28 123/15/28 16/15/28
f 19/15/28 16/15/28 123/15/28
f 19/15/28 115/15/28 16/15/28
f 19/15/28 116/15/28 115/15/28
f 19/15/28 114/15/28 116/15/28
f 19/15/28 113/15/28 114/15/28
f 113/15/28 19/15/28 20/15/28

g wall-corner




usemtl colormap

f 3/2/1 2/1/1 1/1/1
f 2/1/1 3/2/1 4/3/1
f 4/3/1 3/2/1 5/4/1
f 5/4/1 3/2/1 6/5/1
f 6/5/1 3/2/1 7/6/1
f 7/6/1 3/2/1 8/2/1
f 1/1/2 9/2/2 3/2/2
f 9/2/2 1/1/2 10/1/2
f 11/3/3 2/1/4 4/3/3
f 2/1/4 11/3/3 12/1/4
f 12/1/5 9/2/5 10/1/5
f 9/2/5 12/1/5 11/3/5
f 9/2/5 11/3/5 13/4/5
f 9/2/5 13/4/5 14/5/5
f 9/2/5 14/5/5 15/7/5
f 9/2/5 15/7/5 16/2/5
f 19/2/1 18/1/1 17/1/1
f 18/1/1 19/2/1 20/2/1
f 22/7/4 20/2/4 21/2/4
f 23/5/4 20/2/4 22/7/4
f 24/4/4 20/2/4 23/5/4
f 20/2/4 24/4/4 18/1/4
f 18/1/4 24/4/4 25/3/4
f 26/1/4 18/1/4 25/3/4
f 25/3/6 27/1/5 26/1/5
f 27/1/5 25/3/6 28/3/6
f 27/1/2 19/2/2 17/1/2
f 19/2/2 27/1/2 28/3/2
f 19/2/2 28/3/2 29/4/2
f 19/2/2 29/4/2 8/2/2
f 8/2/2 29/4/2 30/5/2
f 8/2/2 30/5/2 7/6/2
f 15/7/8 31/2/7 16/2/7
f 31/2/7 15/7/8 32/7/9
f 24/4/10 28/3/6 25/3/6
f 28/3/6 24/4/10 29/4/10
f 14/5/11 32/7/9 15/7/8
f 32/7/9 14/5/11 7/6/12
f 7/6/12 14/5/11 6/5/11
f 31/2/13 22/7/14 21/2/13
f 22/7/14 31/2/13 32/7/15
f 14/5/11 5/4/16 6/5/11
f 5/4/16 14/5/11 13/4/16
f 23/5/17 29/4/10 24/4/10
f 29/4/10 23/5/17 30/5/17
f 13/4/16 4/3/3 5/4/16
f 4/3/3 13/4/16 11/3/3
f 32/7/15 23/5/17 22/7/14
f 23/5/17 32/7/15 30/5/17
f 30/5/17 32/7/15 7/6/18
f 35/2/21 34/8/20 33/8/19
f 38/2/24 37/8/23 36/8/22
f 41/9/25 40/10/25 39/9/25
f 40/10/25 41/9/25 42/11/25
f 42/11/25 41/9/25 43/8/25
f 43/8/25 41/9/25 44/2/25
f 44/2/25 41/9/25 45/2/25
f 45/2/25 41/9/25 46/8/25
f 46/8/25 41/9/25 47/11/25
f 47/11/25 41/9/25 48/10/25
f 34/8/20 45/2/27 46/8/26
f 45/2/27 34/8/20 35/2/21
f 51/9/28 50/9/28 49/9/28
f 50/9/28 51/9/28 52/9/28
f 50/9/28 52/9/28 39/9/28
f 39/9/28 52/9/28 41/9/28
f 52/9/31 48/10/30 41/9/29
f 48/10/30 52/9/31 53/10/32
f 53/10/32 47/11/33 48/10/30
f 47/11/33 53/10/32 54/11/34
f 46/8/26 54/11/34 34/8/20
f 54/11/34 46/8/26 47/11/33
f 55/10/36 52/9/31 51/9/35
f 52/9/31 55/10/36 53/10/32
f 56/11/37 53/10/32 55/10/36
f 53/10/32 56/11/37 54/11/34
f 33/8/19 54/11/34 56/11/37
f 54/11/34 33/8/19 34/8/20
f 35/2/21 37/8/23 38/2/24
f 37/8/23 35/2/21 33/8/19
f 37/8/23 56/11/37 57/11/38
f 56/11/37 37/8/23 33/8/19
f 56/11/37 58/10/39 57/11/38
f 58/10/39 56/11/37 55/10/36
f 55/10/36 49/9/40 58/10/39
f 49/9/40 55/10/36 51/9/35
f 42/11/42 36/8/22 59/11/41
f 36/8/22 42/11/42 43/8/43
f 42/11/42 60/10/45 40/10/44
f 60/10/45 42/11/42 59/11/41
f 60/10/45 49/9/40 50/9/46
f 49/9/40 60/10/45 58/10/39
f 60/10/45 57/11/38 58/10/39
f 57/11/38 60/10/45 59/11/41
f 59/11/41 37/8/23 57/11/38
f 37/8/23 59/11/41 36/8/22
f 44/2/47 36/8/22 43/8/43
f 36/8/22 44/2/47 38/2/24
f 40/10/44 50/9/46 39/9/48
f 50/9/46 40/10/44 60/10/45
f 12/2/51 62/8/50 61/8/49
f 65/2/54 64/8/53 63/8/52
f 68/9/2 67/10/2 66/9/2
f 67/10/2 68/9/2 69/11/2
f 69/11/2 68/9/2 70/8/2
f 70/8/2 68/9/2 71/2/2
f 71/2/2 68/9/2 72/2/2
f 72/2/2 68/9/2 73/8/2
f 73/8/2 68/9/2 74/11/2
f 74/11/2 68/9/2 75/10/2
f 62/8/50 72/2/56 73/8/55
f 72/2/56 62/8/50 12/2/51
f 78/9/28 77/9/28 76/9/28
f 77/9/28 78/9/28 79/9/28
f 77/9/28 79/9/28 66/9/28
f 66/9/28 79/9/28 68/9/28
f 79/9/58 75/10/57 68/9/5
f 75/10/57 79/9/58 80/10/59
f 80/10/59 74/11/60 75/10/57
f 74/11/60 80/10/59 81/11/61
f 73/8/55 81/11/61 62/8/50
f 81/11/61 73/8/55 74/11/60
f 82/10/63 79/9/58 78/9/62
f 79/9/58 82/10/63 80/10/59
f 83/11/64 80/10/59 82/10/63
f 80/10/59 83/11/64 81/11/61
f 61/8/49 81/11/61 83/11/64
f 81/11/61 61/8/49 62/8/50
f 12/2/51 64/8/53 65/2/54
f 64/8/53 12/2/51 61/8/49
f 64/8/53 83/11/64 84/11/65
f 83/11/64 64/8/53 61/8/49
f 83/11/64 85/10/66 84/11/65
f 85/10/66 83/11/64 82/10/63
f 82/10/63 76/9/67 85/10/66
f 76/9/67 82/10/63 78/9/62
f 69/11/69 63/8/52 86/11/68
f 63/8/52 69/11/69 70/8/70
f 69/11/69 87/10/72 67/10/71
f 87/10/72 69/11/69 86/11/68
f 87/10/72 76/9/67 77/9/73
f 76/9/67 87/10/72 85/10/66
f 87/10/72 84/11/65 85/10/66
f 84/11/65 87/10/72 86/11/68
f 86/11/68 64/8/53 84/11/65
f 64/8/53 86/11/68 63/8/52
f 71/2/74 63/8/52 70/8/70
f 63/8/52 71/2/74 65/2/54
f 67/10/71 77/9/73 66/9/1
f 77/9/73 67/10/71 87/10/72
f 90/12/75 89/13/62 88/12/62
f 89/13/62 90/12/75 91/13/75
f 94/12/76 93/13/5 92/13/76
f 93/13/5 94/12/76 95/12/5
f 98/12/77 97/12/77 96/12/77
f 97/12/77 98/12/77 88/12/77
f 88/12/77 98/12/77 90/12/77
f 90/12/77 98/12/77 99/12/77
f 99/12/77 98/12/77 94/12/77
f 94/12/77 98/12/77 100/12/77
f 94/12/77 100/12/77 95/12/77
f 95/12/77 100/12/77 101/12/77
f 90/12/75 102/13/78 91/13/75
f 102/13/78 90/12/75 99/12/78
f 104/13/2 98/12/2 103/13/2
f 98/12/2 104/13/2 100/12/2
f 99/12/78 92/13/76 102/13/78
f 92/13/76 99/12/78 94/12/76
f 105/13/1 100/12/1 104/13/1
f 100/12/1 105/13/1 101/12/1
f 88/12/62 106/13/79 97/12/79
f 106/13/79 88/12/62 89/13/62
f 91/13/82 107/14/81 89/13/80
f 108/14/83 107/14/81 91/13/82
f 97/12/79 109/13/4 96/12/4
f 109/13/4 97/12/79 106/13/79
f 110/14/86 102/13/85 92/13/84
f 110/14/86 111/14/87 102/13/85
f 111/14/87 91/13/82 102/13/85
f 111/14/87 108/14/83 91/13/82
f 107/14/81 112/14/88 89/13/80
f 112/14/88 106/13/89 89/13/80
f 107/14/81 114/15/91 113/15/90
f 107/14/81 113/15/90 112/14/88
f 111/14/87 16/15/93 115/15/92
f 110/14/86 16/15/93 111/14/87
f 108/14/83 114/15/91 107/14/81
f 108/14/83 116/15/94 114/15/91
f 108/14/83 115/15/92 116/15/94
f 111/14/87 115/15/92 108/14/83
f 117/14/2 101/12/2 105/13/2
f 101/12/2 117/14/2 95/12/2
f 95/12/2 117/14/2 118/15/2
f 95/12/2 118/15/2 9/15/2
f 95/12/2 9/15/2 119/14/2
f 95/12/2 119/14/2 93/13/2
f 117/14/97 104/13/96 120/14/95
f 104/13/96 117/14/97 105/13/98
f 93/13/14 110/14/86 92/13/84
f 110/14/86 93/13/14 119/14/17
f 120/14/95 103/13/100 121/14/99
f 103/13/100 120/14/95 104/13/96
f 19/15/1 122/14/1 20/15/1
f 122/14/1 19/15/1 121/14/1
f 122/14/1 121/14/1 103/13/1
f 122/14/1 103/13/1 109/13/1
f 109/13/1 103/13/1 98/12/1
f 109/13/1 98/12/1 96/12/1
f 106/13/89 122/14/11 109/13/8
f 122/14/11 106/13/89 112/14/88
f 110/14/86 9/15/10 16/15/93
f 9/15/10 110/14/86 119/14/17
f 117/14/97 123/15/102 118/15/101
f 123/15/102 117/14/97 120/14/95
f 123/15/102 121/14/99 19/15/103
f 121/14/99 123/15/102 120/14/95
f 122/14/11 113/15/90 20/15/16
f 113/15/90 122/14/11 112/14/88
f 123/15/28 9/15/28 118/15/28
f 9/15/28 123/15/28 16/15/28
f 19/15/28 16/15/28 123/15/28
f 19/15/28 115/15/28 16/15/28
f 19/15/28 116/15/28 115/15/28
f 19/15/28 114/15/28 116/15/28
f 19/15/28 113/15/28 114/15/28
f 113/15/28 19/15/28 20/15/28

